mtllib 1.mtl
g 1
v 0.200073 0.306824 0.506905
v -0.104126 0.000000 0.506905
v 0.193817 1.758728 0.506905
v -0.118011 1.611084 0.506905
v -0.112030 1.896210 0.506905
v -0.201355 1.680573 0.506905
v -0.334534 1.865753 0.506905
v -0.506897 1.708344 0.506905
v -0.506897 1.999939 0.506905
v -0.351013 1.877655 0.506905
v -0.394257 2.027557 0.506905
v -0.215149 1.879578 0.506905
v -0.285706 2.063660 0.506905
v -0.074982 1.890930 0.506905
v -0.183105 2.108337 0.506905
v 0.095703 1.875275 0.506905
v -0.088226 2.161682 0.506905
v 0.193970 1.980072 0.506905
v -0.002899 2.223816 0.506905
v 0.228607 2.057434 0.506905
v 0.035645 2.258240 0.506905
v 0.250610 2.134155 0.506905
v 0.071106 2.294891 0.506905
v 0.186432 2.270569 0.506905
v 0.103302 2.333801 0.506905
v 0.131958 2.374939 0.506905
v 0.255219 2.123260 0.506905
v 0.506897 2.374939 0.506905
v 0.506897 0.000000 0.506905
v 0.139923 1.873840 0.506905
v -0.104126 0.000000 0.506905
v -0.118011 1.611084 0.506905
v -0.104126 0.000000 -0.506905
v -0.118011 1.611084 -0.506905
v -0.118011 1.611084 0.506905
v -0.201355 1.680573 0.506905
v -0.118011 1.611084 -0.506905
v -0.201355 1.680573 -0.506905
v -0.201355 1.680573 0.506905
v -0.506897 1.708344 0.506905
v -0.201355 1.680573 -0.506905
v -0.506897 1.708344 -0.506905
v -0.506897 1.708344 0.506905
v -0.506897 1.999939 0.506905
v -0.506897 1.708344 -0.506905
v -0.506897 1.999939 -0.506905
v -0.506897 1.999939 0.506905
v -0.394257 2.027557 0.506905
v -0.285706 2.063660 0.506905
v -0.183105 2.108337 0.506905
v -0.088226 2.161682 0.506905
v -0.002899 2.223816 0.506905
v 0.035645 2.258240 0.506905
v 0.071106 2.294891 0.506905
v 0.103302 2.333801 0.506905
v 0.131958 2.374939 0.506905
v -0.506897 1.999939 -0.506905
v -0.394257 2.027557 -0.506905
v -0.285706 2.063660 -0.506905
v -0.183105 2.108337 -0.506905
v -0.088226 2.161682 -0.506905
v -0.002899 2.223816 -0.506905
v 0.035645 2.258240 -0.506905
v 0.071106 2.294891 -0.506905
v 0.103302 2.333801 -0.506905
v 0.131958 2.374939 -0.506905
v 0.131958 2.374939 0.506905
v 0.506897 2.374939 0.506905
v 0.131958 2.374939 -0.506905
v 0.506897 2.374939 -0.506905
v 0.506897 2.374939 0.506905
v 0.506897 0.000000 0.506905
v 0.506897 2.374939 -0.506905
v 0.506897 0.000000 -0.506905
v 0.506897 0.000000 0.506905
v -0.104126 0.000000 0.506905
v 0.506897 0.000000 -0.506905
v -0.104126 0.000000 -0.506905
v 0.200073 0.306824 -0.506905
v -0.104126 0.000000 -0.506905
v 0.193817 1.758728 -0.506905
v -0.118011 1.611084 -0.506905
v -0.112030 1.896210 -0.506905
v -0.201355 1.680573 -0.506905
v -0.334534 1.865753 -0.506905
v -0.506897 1.708344 -0.506905
v -0.506897 1.999939 -0.506905
v -0.351013 1.877655 -0.506905
v -0.394257 2.027557 -0.506905
v -0.215149 1.879578 -0.506905
v -0.285706 2.063660 -0.506905
v -0.074982 1.890930 -0.506905
v -0.183105 2.108337 -0.506905
v 0.095703 1.875275 -0.506905
v -0.088226 2.161682 -0.506905
v 0.193970 1.980072 -0.506905
v -0.002899 2.223816 -0.506905
v 0.228607 2.057434 -0.506905
v 0.035645 2.258240 -0.506905
v 0.250610 2.134155 -0.506905
v 0.071106 2.294891 -0.506905
v 0.186432 2.270569 -0.506905
v 0.103302 2.333801 -0.506905
v 0.131958 2.374939 -0.506905
v 0.255219 2.123260 -0.506905
v 0.506897 2.374939 -0.506905
v 0.506897 0.000000 -0.506905
v 0.139923 1.873840 -0.506905
vt 0.697342 0.129197
vt 0.397287 0.000000
vt 0.691175 0.740542
vt 0.383589 0.678369
vt 0.389507 0.798432
vt 0.301375 0.707628
vt 0.170034 0.785607
vt 0.000000 0.719323
vt 0.000000 0.842100
vt 0.153780 0.790612
vt 0.111127 0.853737
vt 0.287770 0.791423
vt 0.218199 0.868938
vt 0.426044 0.796201
vt 0.319401 0.887749
vt 0.594394 0.789618
vt 0.412983 0.910213
vt 0.691324 0.833738
vt 0.497145 0.936377
vt 0.725480 0.866320
vt 0.535146 0.950872
vt 0.747191 0.898618
vt 0.570125 0.966299
vt 0.683891 0.956061
vt 0.601886 0.982678
vt 0.630171 1.000000
vt 0.751748 0.894028
vt 1.000000 1.000000
vt 1.000000 0.000000
vt 0.638009 0.789008
vt 1.000000 1.000000
vt 0.749782 1.000000
vt 1.000000 0.000000
vt 0.749782 0.000000
vt 0.749782 1.000000
vt 0.732929 1.000000
vt 0.749782 0.000000
vt 0.732929 0.000000
vt 0.732929 1.000000
vt 0.685282 1.000000
vt 0.732929 0.000000
vt 0.685282 0.000000
vt 0.685282 1.000000
vt 0.639997 1.000000
vt 0.685282 0.000000
vt 0.639997 0.000000
vt 0.639997 1.000000
vt 0.621981 1.000000
vt 0.604215 1.000000
vt 0.586836 1.000000
vt 0.569931 1.000000
vt 0.553538 1.000000
vt 0.545515 1.000000
vt 0.537596 1.000000
vt 0.529753 1.000000
vt 0.521965 1.000000
vt 0.639997 0.000000
vt 0.621981 0.000000
vt 0.604215 0.000000
vt 0.586836 0.000000
vt 0.569931 0.000000
vt 0.553538 0.000000
vt 0.545515 0.000000
vt 0.537596 0.000000
vt 0.529753 0.000000
vt 0.521965 0.000000
vt 0.521965 1.000000
vt 0.463735 1.000000
vt 0.521965 0.000000
vt 0.463735 0.000000
vt 0.463735 1.000000
vt 0.094897 1.000000
vt 0.463735 0.000000
vt 0.094897 0.000000
vt 0.094897 1.000000
vt -0.000000 1.000000
vt 0.094897 0.000000
vt -0.000000 0.000000
vt 0.697342 0.129197
vt 0.397287 0.000000
vt 0.691175 0.740542
vt 0.383589 0.678369
vt 0.389507 0.798432
vt 0.301375 0.707628
vt 0.170034 0.785607
vt 0.000000 0.719323
vt 0.000000 0.842100
vt 0.153780 0.790612
vt 0.111127 0.853737
vt 0.287770 0.791423
vt 0.218199 0.868938
vt 0.426044 0.796201
vt 0.319401 0.887749
vt 0.594394 0.789618
vt 0.412983 0.910213
vt 0.691324 0.833738
vt 0.497145 0.936377
vt 0.725480 0.866320
vt 0.535146 0.950872
vt 0.747191 0.898618
vt 0.570125 0.966299
vt 0.683891 0.956061
vt 0.601886 0.982678
vt 0.630171 1.000000
vt 0.751748 0.894028
vt 1.000000 1.000000
vt 1.000000 0.000000
vt 0.638009 0.789008
vn 0.000000 0.000000 1.000000
vn 0.000000 0.000000 1.000000
vn 0.000000 0.000000 1.000000
vn 0.000000 0.000000 1.000000
vn 0.000000 0.000000 1.000000
vn 0.000000 0.000000 1.000000
vn 0.000000 0.000000 1.000000
vn 0.000000 0.000000 1.000000
vn 0.000000 0.000000 1.000000
vn 0.000000 0.000000 1.000000
vn 0.000000 0.000000 1.000000
vn 0.000000 0.000000 1.000000
vn 0.000000 0.000000 1.000000
vn 0.000000 0.000000 1.000000
vn 0.000000 0.000000 1.000000
vn 0.000000 0.000000 1.000000
vn 0.000000 0.000000 0.998312
vn 0.000000 0.000000 1.000000
vn 0.000000 0.000000 1.000000
vn 0.000000 0.000000 1.000000
vn 0.000000 0.000000 1.000000
vn 0.000000 0.000000 1.000000
vn 0.000000 0.000000 1.000000
vn 0.000000 0.000000 1.000000
vn 0.000000 0.000000 0.998312
vn 0.000000 0.000000 0.998312
vn 0.000000 0.000000 1.000000
vn 0.000000 0.000000 1.000000
vn 0.000000 0.000000 1.000000
vn 0.000000 0.000000 1.000000
vn -0.998275 -0.008605 0.000000
vn -0.998275 -0.008605 0.000000
vn -0.998275 -0.008605 0.000000
vn -0.998275 -0.008605 0.000000
vn -0.639264 -0.766792 0.000000
vn -0.639264 -0.766792 0.000000
vn -0.639264 -0.766792 0.000000
vn -0.639264 -0.766792 0.000000
vn -0.090532 -0.995894 0.000000
vn -0.090532 -0.995894 0.000000
vn -0.090532 -0.995894 0.000000
vn -0.090532 -0.995894 0.000000
vn -1.000000 0.000000 0.000000
vn -1.000000 0.000000 0.000000
vn -1.000000 0.000000 0.000000
vn -1.000000 0.000000 0.000000
vn -0.237846 0.969565 0.000000
vn -0.276667 0.959210 0.000000
vn -0.357154 0.932239 0.000000
vn -0.444505 0.893892 0.000000
vn -0.539429 0.840026 0.000000
vn -0.627222 0.776672 0.000000
vn -0.692878 0.721055 0.000000
vn -0.744993 0.667072 0.000000
vn -0.794684 0.604239 0.000000
vn -0.820365 0.571840 0.000000
vn -0.237846 0.969565 0.000000
vn -0.276667 0.959210 0.000000
vn -0.357154 0.932239 0.000000
vn -0.444505 0.893892 0.000000
vn -0.539429 0.840026 0.000000
vn -0.627222 0.776672 0.000000
vn -0.692878 0.721055 0.000000
vn -0.744993 0.667072 0.000000
vn -0.794684 0.604239 0.000000
vn -0.820365 0.571840 0.000000
vn 0.000000 1.000000 0.000000
vn 0.000000 1.000000 0.000000
vn 0.000000 1.000000 0.000000
vn 0.000000 1.000000 0.000000
vn 1.000000 0.000000 0.000000
vn 1.000000 0.000000 0.000000
vn 1.000000 0.000000 0.000000
vn 1.000000 0.000000 0.000000
vn 0.000000 -1.000000 0.000000
vn 0.000000 -1.000000 0.000000
vn 0.000000 -1.000000 0.000000
vn 0.000000 -1.000000 0.000000
vn 0.000000 0.000000 -1.000000
vn 0.000000 0.000000 -1.000000
vn 0.000000 0.000000 -1.000000
vn 0.000000 0.000000 -1.000000
vn 0.000000 0.000000 -1.000000
vn 0.000000 0.000000 -1.000000
vn 0.000000 0.000000 -1.000000
vn 0.000000 0.000000 -1.000000
vn 0.000000 0.000000 -1.000000
vn 0.000000 0.000000 -1.000000
vn 0.000000 0.000000 -1.000000
vn 0.000000 0.000000 -1.000000
vn 0.000000 0.000000 -1.000000
vn 0.000000 0.000000 -1.000000
vn 0.000000 0.000000 -1.000000
vn 0.000000 0.000000 -1.000000
vn 0.000000 0.000000 -0.998312
vn 0.000000 0.000000 -1.000000
vn 0.000000 0.000000 -1.000000
vn 0.000000 0.000000 -1.000000
vn 0.000000 0.000000 -1.000000
vn 0.000000 0.000000 -1.000000
vn 0.000000 0.000000 -1.000000
vn 0.000000 0.000000 -1.000000
vn 0.000000 0.000000 -0.998312
vn 0.000000 0.000000 -0.998312
vn 0.000000 0.000000 -1.000000
vn 0.000000 0.000000 -1.000000
vn 0.000000 0.000000 -1.000000
vn 0.000000 0.000000 -1.000000
usemtl 1 Front Inflation Material
f 3/3/3 4/4/4 1/1/1
f 30/30/30 16/16/16 3/3/3
f 12/12/12 7/7/7 6/6/6
f 9/9/9 8/8/8 10/10/10
f 11/11/11 9/9/9 10/10/10
f 12/12/12 13/13/13 7/7/7
f 14/14/14 15/15/15 5/5/5
f 16/16/16 17/17/17 14/14/14
f 19/19/19 17/17/17 18/18/18
f 21/21/21 19/19/19 20/20/20
f 27/27/27 22/22/22 20/20/20
f 25/25/25 23/23/23 24/24/24
f 25/25/25 24/24/24 26/26/26
f 26/26/26 24/24/24 28/28/28
f 1/1/1 29/29/29 3/3/3
f 2/2/2 29/29/29 1/1/1
f 2/2/2 1/1/1 4/4/4
f 3/3/3 16/16/16 4/4/4
f 16/16/16 14/14/14 4/4/4
f 4/4/4 14/14/14 6/6/6
f 5/5/5 6/6/6 14/14/14
f 5/5/5 12/12/12 6/6/6
f 8/8/8 6/6/6 7/7/7
f 7/7/7 10/10/10 8/8/8
f 7/7/7 13/13/13 10/10/10
f 11/11/11 10/10/10 13/13/13
f 5/5/5 15/15/15 12/12/12
f 13/13/13 12/12/12 15/15/15
f 15/15/15 14/14/14 17/17/17
f 17/17/17 16/16/16 18/18/18
f 30/30/30 18/18/18 16/16/16
f 18/18/18 20/20/20 19/19/19
f 20/20/20 22/22/22 21/21/21
f 23/23/23 21/21/21 22/22/22
f 22/22/22 24/24/24 23/23/23
f 24/24/24 22/22/22 28/28/28
f 27/27/27 28/28/28 22/22/22
f 3/3/3 29/29/29 18/18/18
f 30/30/30 3/3/3 18/18/18
f 18/18/18 29/29/29 20/20/20
f 20/20/20 29/29/29 27/27/27
f 28/28/28 27/27/27 29/29/29
usemtl 1 Front Bevel Material
f 1/1/1 1/1/1 1/1/1
usemtl 1 Extrusion Material
f 33/33/33 31/31/31 32/32/32
f 33/33/33 32/32/32 34/34/34
f 37/37/37 35/35/35 36/36/36
f 37/37/37 36/36/36 38/38/38
f 41/41/41 39/39/39 40/40/40
f 41/41/41 40/40/40 42/42/42
f 45/45/45 43/43/43 44/44/44
f 45/45/45 44/44/44 46/46/46
f 57/57/57 47/47/47 48/48/48
f 57/57/57 48/48/48 58/58/58
f 58/58/58 48/48/48 49/49/49
f 58/58/58 49/49/49 59/59/59
f 59/59/59 49/49/49 50/50/50
f 59/59/59 50/50/50 60/60/60
f 60/60/60 50/50/50 51/51/51
f 60/60/60 51/51/51 61/61/61
f 61/61/61 51/51/51 52/52/52
f 61/61/61 52/52/52 62/62/62
f 62/62/62 52/52/52 53/53/53
f 62/62/62 53/53/53 63/63/63
f 63/63/63 53/53/53 54/54/54
f 63/63/63 54/54/54 64/64/64
f 64/64/64 54/54/54 55/55/55
f 64/64/64 55/55/55 65/65/65
f 65/65/65 55/55/55 56/56/56
f 65/65/65 56/56/56 66/66/66
f 69/69/69 67/67/67 68/68/68
f 69/69/69 68/68/68 70/70/70
f 73/73/73 71/71/71 72/72/72
f 73/73/73 72/72/72 74/74/74
f 77/77/77 75/75/75 76/76/76
f 77/77/77 76/76/76 78/78/78
usemtl 1 Back Bevel Material
f 1/1/1 1/1/1 1/1/1
usemtl 1 Back Inflation Material
f 82/82/82 81/81/81 79/79/79
f 94/94/94 108/108/108 81/81/81
f 85/85/85 90/90/90 84/84/84
f 86/86/86 87/87/87 88/88/88
f 87/87/87 89/89/89 88/88/88
f 91/91/91 90/90/90 85/85/85
f 93/93/93 92/92/92 83/83/83
f 95/95/95 94/94/94 92/92/92
f 95/95/95 97/97/97 96/96/96
f 97/97/97 99/99/99 98/98/98
f 100/100/100 105/105/105 98/98/98
f 101/101/101 103/103/103 102/102/102
f 102/102/102 103/103/103 104/104/104
f 102/102/102 104/104/104 106/106/106
f 107/107/107 79/79/79 81/81/81
f 107/107/107 80/80/80 79/79/79
f 79/79/79 80/80/80 82/82/82
f 94/94/94 81/81/81 82/82/82
f 92/92/92 94/94/94 82/82/82
f 92/92/92 82/82/82 84/84/84
f 84/84/84 83/83/83 92/92/92
f 90/90/90 83/83/83 84/84/84
f 84/84/84 86/86/86 85/85/85
f 88/88/88 85/85/85 86/86/86
f 91/91/91 85/85/85 88/88/88
f 88/88/88 89/89/89 91/91/91
f 93/93/93 83/83/83 90/90/90
f 90/90/90 91/91/91 93/93/93
f 92/92/92 93/93/93 95/95/95
f 94/94/94 95/95/95 96/96/96
f 96/96/96 108/108/108 94/94/94
f 98/98/98 96/96/96 97/97/97
f 100/100/100 98/98/98 99/99/99
f 99/99/99 101/101/101 100/100/100
f 102/102/102 100/100/100 101/101/101
f 100/100/100 102/102/102 106/106/106
f 106/106/106 105/105/105 100/100/100
f 107/107/107 81/81/81 96/96/96
f 81/81/81 108/108/108 96/96/96
f 107/107/107 96/96/96 98/98/98
f 107/107/107 98/98/98 105/105/105
f 105/105/105 106/106/106 107/107/107
